# AST/ASF file generated using VICON BodyLanguage
# -----------------------------------------------
:version 1.10
:name VICON
:units
  mass 1.0
  length 0.45
  angle deg
:documentation
   .ast/.asf automatically generated from VICON data using
   VICON BodyBuilder and BodyLanguage model FoxedUp or BRILLIANT.MOD
:root
   order TX TY TZ RX RY RZ
   axis XYZ
   position 0 0 0  
   orientation 0 0 0 
:bonedata
  begin
     id 1 
     name lhipjoint
     direction 0.588788 -0.725889 0.355548 
     length 2.37778 
     axis 0 0 0  XYZ
  end
  begin
     id 2 
     name lfemur
     direction 0.34202 -0.939693 0  
     length 6.86393  
     axis 0 0 20  XYZ
    dof rx ry rz
    limits (-160.0 20.0)
           (-70.0 70.0)
           (-60.0 70.0)
  end
  begin
     id 3 
     name ltibia
     direction 0.34202 -0.939693 0   
     length 7.32851   
     axis 0 0 20   XYZ
    dof rx
    limits (-10.0 170.0)
  end
  begin
     id 4 
     name lfoot
     direction 0.0626533 -0.172138 0.983078   
     length 1.98929   
     axis -90 7.62852e-016 20   XYZ
    dof rx rz
    limits (-45.0 90.0)
           (-70.0 20.0)
  end
  begin
     id 5 
     name ltoes
     direction 1.53647e-011 -4.21734e-011 1   
     length 1.00479   
     axis -90 7.62852e-016 20   XYZ
    dof rx
    limits (-90.0 20.0)
  end
  begin
     id 6 
     name rhipjoint
     direction -0.59141 -0.724168 0.354705   
     length 2.38343  
     axis 0 0 0  XYZ 
  end
  begin
     id 7 
     name rfemur
     direction -0.34202 -0.939693 0   
     length 6.95589   
     axis 0 0 -20   XYZ
    dof rx ry rz
    limits (-160.0 20.0)
           (-70.0 70.0)
           (-70.0 60.0)
  end
  begin
     id 8 
     name rtibia
     direction -0.34202 -0.939693 0   
     length 7.32327   
     axis 0 0 -20   XYZ
    dof rx
    limits (-10.0 170.0)
 end
 begin
     id 9 
     name rfoot
     direction -0.0660461 -0.18146 0.981178   
     length 1.85272  
     axis -90 -7.62852e-016 -20   XYZ
    dof rx rz
    limits (-45.0 90.0)
           (-20.0 70.0)
  end
  begin
     id 10 
     name rtoes
     direction -1.53586e-011 -4.21988e-011 1   
     length 0.93746   
     axis -90 -7.62852e-016 -20   XYZ
    dof rx
    limits (-90.0 20.0)
  end
  begin
     id 11 
     name lowerback
     direction -0.0107982 0.991059 0.13299   
     length 1.98691   
     axis 0 0 0   XYZ
    dof rx ry rz
    limits (-20.0 45.0)
           (-30.0 30.0)
           (-30.0 30.0)
  end
  begin
     id 12 
     name upperback
     direction 0.0076296 0.999916 0.0104576   
     length 1.99501   
     axis 0 0 0   XYZ
    dof rx ry rz
    limits (-20.0 45.0)
           (-30.0 30.0)
           (-30.0 30.0)
  end
  begin
     id 13 
     name thorax
     direction 0.01176 0.998615 -0.0512909   
     length 2.03144   
     axis 0 0 0   XYZ
    dof rx ry rz
    limits (-20.0 45.0)
           (-30.0 30.0)
           (-30.0 30.0)
  end
  begin
     id 14 
     name lowerneck
     direction -0.0171909 0.999644 0.0204011   
     length 1.71818   
     axis 0 0 0   XYZ
    dof rx ry rz
    limits (-20.0 45.0)
           (-30.0 30.0)
           (-30.0 30.0)
  end
  begin
     id 15 
     name upperneck
     direction 0.0250902 0.997482 -0.0663316   
     length 1.66199   
     axis 0 0 0   XYZ
    dof rx ry rz
    limits (-20.0 45.0)
           (-30.0 30.0)
           (-30.0 30.0)
  end
  begin
     id 16
     name head
     direction 0.00881535 0.99956 -0.0283365  
     length 1.81545  
     axis 0 0 0   XYZ
    dof rx ry rz
    limits (-20.0 45.0)
           (-30.0 30.0)
           (-30.0 30.0)
  end
  begin
     id 17 
     name lclavicle
     direction 0.840411 0.486876 -0.238035  
     length 3.30409  
     axis 0 0 0   XYZ
    dof ry rz
    limits (-20.0 10.0)
           (0.0 20.0)
  end
  begin
     id 18 
     name lhumerus
     direction 1 -4.48977e-011 -5.16239e-027   
     length 4.62672   
     axis 180 -30 -90   XYZ
    dof rx ry rz
    limits (-60.0 90.0)
           (-90.0 90.0)
           (-90.0 90.0)
  end
  begin
     id 19
     name lradius
     direction 1 -4.48977e-011 -8.71171e-027   
     length 3.11018   
     axis 180 -30 -90   XYZ
    dof rx
    limits (-10.0 170.0)
  end
  begin
     id 20
     name lwrist
     direction 1 -4.48912e-011 -1.03764e-026   
     length 1.55509   
     axis 9.09556e-015 90 90   XYZ
    dof ry
    limits (-180.0 0.0)
 end
  begin
     id 21 
     name lhand
     direction 1 -4.49072e-011 -2.07528e-026   
     length 0.743834   
     axis 1.3242e-014 90 90   XYZ
    dof rx rz
    limits (-90.0 90.0)
           (-45.0 45.0)
  end
  begin
     id 22 
     name lfingers
     direction 1 -4.48909e-011 -4.15056e-026   
     length 0.599698   
     axis 2.64841e-014 90 90   XYZ
    dof rx
    limits (0.0 90.0)
  end
  begin
     id 23
     name lthumb
     direction 0.707107 -6.35013e-011 0.707107   
     length 0.86105   
     axis -90 45 2.85299e-015   XYZ
    dof rx rz
    limits (-45.0 45.0)
           (-45.0 45.0)
  end
  begin
     id 24 
     name rclavicle
     direction -0.835208 0.500237 -0.228452   
     length 3.2716  
     axis 0 0 0   XYZ 
    dof ry rz
    limits (-10.0 20.0)
           (-20.0 0.0)
  end
  begin
     id 25 
     name rhumerus
     direction -1 -4.48978e-011 -5.1953e-028  
     length 4.55919   
     axis 180 30 90   XYZ
    dof rx ry rz
    limits (-90.0 60.0)
           (-90.0 90.0)
           (-90.0 90.0)
  end
  begin
     id 26 
     name rradius
     direction -1 -4.48961e-011 -5.99546e-027   
     length 3.22748   
     axis 180 30 90   XYZ
    dof rx
    limits (-10.0 170.0)
  end
  begin
     id 27 
     name rwrist
     direction -1 -4.48986e-011 -1.03764e-026   
     length 1.61374   
     axis 9.09556e-015 -90 -90   XYZ
    dof ry
    limits (-180.0 0.0)
  end
  begin
     id 28
     name rhand
     direction -1 -4.4899e-011 -2.07528e-026   
     length 0.700882   
     axis 1.3242e-014 -90 -90   XYZ
    dof rx rz
    limits (-90.0 90.0)
           (-45.0 45.0)
  end
  begin
     id 29
     name rfingers
     direction -1 -4.48991e-011 -4.15056e-026   
     length 0.565069   
     axis 2.64841e-014 -90 -90   XYZ
    dof rx
    limits (0.0 90.0)
  end
  begin
     id 30
     name rthumb
     direction -0.707107 -6.34804e-011 0.707107   
     length 0.811329   
     axis -90 -45 -2.85299e-015   XYZ
    dof rx rz
    limits (-45.0 45.0)
           (-45.0 45.0)
  end
:hierarchy
  begin
    root lhipjoint rhipjoint lowerback
    lhipjoint lfemur
    lfemur ltibia
    ltibia lfoot
    lfoot ltoes
    rhipjoint rfemur
    rfemur rtibia
    rtibia rfoot
    rfoot rtoes
    lowerback upperback
    upperback thorax
    thorax lowerneck lclavicle rclavicle
    lowerneck upperneck
    upperneck head
    lclavicle lhumerus
    lhumerus lradius
    lradius lwrist
    lwrist lhand lthumb
    lhand lfingers
    rclavicle rhumerus
    rhumerus rradius
    rradius rwrist
    rwrist rhand rthumb
    rhand rfingers
  end

#!OML:ASF F:\VICON\USERDATA\INSTALL\SteveWalk\SteveWalk.ASF
:FULLY-SPECIFIED
:DEGREES
48
root -0.469348 16.1178 -34.6905 19.4677 -7.87616 -2.38936
lowerback -16.8171 3.31704 -0.166412
upperback -4.8088 4.31851 1.28651
thorax 4.15012 2.13279 2.31124
lowerneck -3.85138 -1.30296 0.0876371
upperneck 9.75849 -1.43004 -3.3758
head 3.83286 -0.849845 -1.19899
rclavicle 3.73467e-014 9.93923e-015
rhumerus -10.6035 9.83597 -81.2455
rradius 56.2376
rwrist -21.8415
rhand -17.0016 -34.2973
rfingers 7.12502
rthumb 9.23377 -64.0751
lclavicle 3.73467e-014 9.93923e-015
lhumerus -70.5309 23.996 46.5282
lradius 12.1589
lwrist -38.5639
lhand -11.004 -18.2521
lfingers 7.12502
lthumb 15.0167 11.1834
rfemur -4.6109 -4.67395 20.3285
rtibia 20.6747
rfoot -23.9382 18.9442
rtoes -6.52381
lfemur -49.4543 8.69904 -19.0052
ltibia 10.0503
lfoot -9.25456 2.92902
ltoes -16.8726
49
root -0.4321 16.0857 -34.4109 19.1262 -8.82423 -2.86429
lowerback -17.397 3.84104 0.460983
upperback -4.39993 4.89341 1.18103
thorax 4.933 2.40539 2.02701
lowerneck -3.38837 -1.33684 0.0400738
upperneck 9.18216 -1.51911 -3.07196
head 3.53947 -0.874436 -1.07808
rclavicle -1.57785e-014 -2.50469e-014
rhumerus -10.322 9.8964 -80.9235
rradius 56.9958
rwrist -22.0321
rhand -17.0469 -34.188
rfingers 7.12502
rthumb 9.19007 -63.9677
lclavicle -1.57785e-014 -2.50469e-014
lhumerus -71.6147 24.504 44.0572
lradius 11.8419
lwrist -39.7267
lhand -10.5147 -17.6179
lfingers 7.12502
lthumb 15.4879 11.7818
rfemur -3.1418 -3.95825 19.9744
rtibia 20.4901
rfoot -23.2872 19.9567
rtoes -6.24061
lfemur -48.6544 9.36664 -18.5796
ltibia 9.57366
lfoot -9.59784 2.7922
ltoes -16.965
50
root -0.400609 16.0298 -34.2337 20.1887 -7.17317 -2.48934
lowerback -17.3277 3.39515 0.34618
upperback -5.31457 4.35305 0.87218
thorax 3.95381 2.15215 1.60722
lowerneck -2.83803 -1.60042 0.249123
upperneck 9.50425 -1.89572 -2.93672
head 3.53749 -1.0469 -1.08177
rclavicle 3.69615e-014 5.96354e-016
rhumerus -10.9828 9.67536 -80.9342
rradius 57.634
rwrist -21.9565
rhand -16.7923 -33.447
rfingers 7.12502
rthumb 9.43572 -63.2157
lclavicle 3.69615e-014 5.96354e-016
lhumerus -72.7994 23.7538 42.305
lradius 11.771
lwrist -39.8263
lhand -10.8705 -18.3082
lfingers 7.12502
lthumb 15.1453 11.1176
rfemur -3.62807 -4.41678 20.0413
rtibia 20.6305
rfoot -22.4614 19.0468
rtoes -8.38974
lfemur -50.175 7.24837 -18.3975
ltibia 9.32553
lfoot -9.01812 2.82228
ltoes -17.6672
51
root -0.39264 15.9902 -33.969 19.6403 -6.78219 -2.1649
lowerback -16.5204 3.2266 -0.219138
upperback -5.46758 4.24193 0.743665
thorax 3.33691 2.10647 1.70832
lowerneck -3.06567 -1.62038 0.35014
upperneck 9.76246 -1.93728 -2.77818
head 3.67145 -1.06045 -1.05631
rclavicle 6.28905e-014 1.74931e-014
rhumerus -11.5284 9.68194 -80.7835
rradius 58.3447
rwrist -22.0167
rhand -16.8652 -33.3976
rfingers 7.12502
rthumb 9.3654 -63.1695
lclavicle 6.28905e-014 1.74931e-014
lhumerus -74.6084 24.4534 38.0795
lradius 11.2946
lwrist -42.9243
lhand -11.063 -18.256
lfingers 7.12502
lthumb 14.9598 11.1837
rfemur -2.08471 -4.26423 19.5997
rtibia 20.7075
rfoot -21.9105 18.7894
rtoes -8.23203
lfemur -49.4656 6.43675 -18.2345
ltibia 9.7108
lfoot -9.08361 2.97654
ltoes -18.2915
52
root -0.375789 15.9479 -33.7026 19.3926 -6.46403 -1.92948
lowerback -17.7159 3.02848 -0.475193
upperback -4.49654 4.02422 0.645047
thorax 4.99791 1.97188 1.819
lowerneck -3.88215 -1.58302 0.374189
upperneck 9.05051 -1.91616 -2.59965
head 3.5821 -1.04256 -1.00228
rclavicle -5.93869e-015 -5.36719e-015
rhumerus -10.3297 9.80667 -80.4075
rradius 58.913
rwrist -22.3436
rhand -17.1473 -33.6723
rfingers 7.12502
rthumb 9.09325 -63.4563
lclavicle -5.93869e-015 -5.36719e-015
lhumerus -76.25 27.1808 32.7107
lradius 10.7535
lwrist -47.3746
lhand -11.5417 -17.7319
lfingers 7.12502
lthumb 14.4987 11.7415
rfemur -1.08001 -3.96842 19.2268
rtibia 21.2163
rfoot -21.4205 18.5885
rtoes -8.06172
lfemur -48.9213 5.68187 -18.0976
ltibia 10.1175
lfoot -8.93543 3.17571
ltoes -18.6956
53
root -0.35754 15.9024 -33.4407 18.872 -6.02224 -1.56704
lowerback -17.3137 2.8351 -1.05721
upperback -4.31995 3.87889 0.577169
thorax 4.94243 1.89694 2.02659
lowerneck -4.31889 -1.61826 0.371344
upperneck 8.91676 -1.97925 -2.43581
head 3.62043 -1.06876 -0.955015
rclavicle -1.58158e-014 -4.17448e-015
rhumerus -10.6557 9.76402 -80.059
rradius 59.6054
rwrist -22.6439
rhand -17.3453 -33.761
rfingers 7.12502
rthumb 8.90214 -63.5532
lclavicle -1.58158e-014 -4.17448e-015
lhumerus -77.7786 27.7893 29.4664
lradius 10.6008
lwrist -49.4144
lhand -11.5973 -17.6898
lfingers 7.12502
lthumb 14.4451 11.7874
rfemur 0.447198 -3.79108 18.7603
rtibia 21.2688
rfoot -20.5093 18.4199
rtoes -10.1342
lfemur -48.9781 5.35925 -18.6858
ltibia 12.226
lfoot -9.18366 2.96871
ltoes -17.0906
54
root -0.334133 15.8746 -33.1751 18.6483 -5.83656 -1.13927
lowerback -17.165 2.74925 -1.58241
upperback -4.33127 3.86879 0.377136
thorax 4.8306 1.89038 2.0992
lowerneck -4.61891 -1.72622 0.496976
upperneck 9.06117 -2.13703 -2.37578
head 3.72643 -1.14211 -0.971093
rclavicle -3.62596e-014 -9.93923e-015
rhumerus -11.2146 9.63067 -79.9044
rradius 60.2367
rwrist -22.857
rhand -17.2988 -33.7709
rfingers 7.12502
rthumb 8.94699 -63.5612
lclavicle -3.62596e-014 -9.93923e-015
lhumerus -79.6041 28.2593 25.4748
lradius 10.3751
lwrist -52.0422
lhand -11.4907 -17.3843
lfingers 7.12502
lthumb 14.5478 12.0856
rfemur 1.50093 -3.76285 18.0982
rtibia 21.4117
rfoot -19.1413 18.7698
rtoes -11.0477
lfemur -49.34 5.30199 -19.6196
ltibia 14.62
lfoot -7.49032 3.03502
ltoes -21.9414
55
root -0.319239 15.8684 -32.9205 18.929 -5.41371 -1.08289
lowerback -17.3025 2.57374 -1.78658
upperback -4.61108 3.67614 0.310644
thorax 4.60584 1.80054 2.10197
lowerneck -4.59762 -1.81712 0.410067
upperneck 9.41331 -2.26733 -2.15872
head 3.84727 -1.2013 -0.894735
rclavicle 4.60963e-014 2.68359e-015
rhumerus -12.0362 9.72319 -79.943
rradius 60.8244
rwrist -23.1261
rhand -17.2469 -33.6497
rfingers 7.12502
rthumb 8.99711 -63.4378
lclavicle 4.60963e-014 2.68359e-015
lhumerus -82.3545 28.9118 19.7813
lradius 10.0519
lwrist -56.2137
lhand -11.6634 -17.838
lfingers 7.12502
lthumb 14.3813 11.6438
rfemur 1.84878 -3.3667 18.118
rtibia 21.7214
rfoot -17.6511 18.5307
rtoes -12.8766
lfemur -50.3142 5.05664 -19.8874
ltibia 17.1423
lfoot -3.92289 2.74284
ltoes -26.1299
56
root -0.303347 15.8734 -32.6629 19.1958 -4.9212 -1.06046
lowerback -17.3073 2.36149 -1.90255
upperback -4.9319 3.41589 0.269873
thorax 4.27451 1.68061 2.06072
lowerneck -4.37686 -1.75561 0.171782
upperneck 9.15276 -2.20998 -1.72518
head 3.71963 -1.16098 -0.699767
rclavicle -4.41224e-014 -1.21756e-014
rhumerus -13.2778 9.89391 -80.034
rradius 61.6166
rwrist -23.2276
rhand -17.193 -33.8628
rfingers 7.12502
rthumb 9.04914 -63.6487
lclavicle -4.41224e-014 -1.21756e-014
lhumerus -82.6565 28.9635 19.2252
lradius 9.74319
lwrist -56.1542
lhand -11.7215 -16.3652
lfingers 7.12502
lthumb 14.3253 13.1206
rfemur 2.01162 -2.95308 18.2367
rtibia 22.3638
rfoot -15.9576 18.1519
rtoes -14.4166
lfemur -51.3311 4.4361 -19.5708
ltibia 19.7428
lfoot -1.69335 2.07087
ltoes -24.6063
